<svg width="64" height="64" viewBox="0 0 64 64" fill="none" xmlns="http://www.w3.org/2000/svg">
<path d="M45.765 50.5164C45.8748 50.4617 45.9779 50.3943 46.0723 50.3157C46.8283 49.9143 47.607 49.5579 48.4041 49.2482C49.0549 48.9927 49.8502 48.7372 50.7631 48.4726C50.9348 47.469 51.1788 46.3832 51.4861 45.2609C51.7934 44.1387 52.2272 42.624 52.7966 40.6989V40.562H54.8664L58.9245 38.8193C59.1595 38.7189 59.4216 38.6003 59.6927 38.4634C59.8021 38.4154 59.9053 38.3541 60 38.281C60 38.208 60 38.1988 59.9367 38.1897C59.8495 38.181 59.7618 38.181 59.6746 38.1897H58.5178L56.7101 38.2627C56.0865 38.2627 55.499 38.3266 54.9025 38.3357H53.7005H53.4383L53.5197 38.0802C54.0439 36.4439 54.6223 34.6191 55.255 32.6057L57.0626 26.8393C57.6411 25.0145 58.093 23.4816 58.4545 22.2772C58.9154 20.6713 58.9877 20.3246 58.9968 20.2608C59.0131 20.0539 59.0495 19.8492 59.1052 19.6494C59.1595 19.4031 59.2318 19.1111 59.3041 18.737L59.3673 18.4724C59.4668 18.0436 59.5571 17.56 59.6294 17.0308C59.6978 16.5564 59.734 16.0778 59.7379 15.5983C59.7379 15.4615 59.7379 15.2425 59.7379 14.9505C59.7379 14.6585 59.7379 14.3574 59.6656 14.0381C59.6443 13.768 59.5802 13.5031 59.4758 13.2534C59.3944 13.0618 59.3221 13.0071 59.295 13.0071C59.2534 12.9976 59.2102 12.9976 59.1685 13.0071L58.6443 13.2717C57.7691 13.6565 56.8617 13.9618 55.9329 14.1841C55.5907 14.2437 55.2568 14.3448 54.9387 14.4852C54.6395 14.6622 54.3759 14.8944 54.1614 15.1695C52.7999 16.6639 51.5206 18.2326 50.3292 19.8684C49.1543 21.4743 47.9793 23.217 46.8225 25.0601C45.6656 26.9032 44.4545 28.9561 43.2072 31.1003C41.96 33.2444 40.6133 35.708 39.1762 38.3175L39.122 38.4178H34.8922C33.3738 38.4178 31.7017 38.4178 29.9212 38.3539L24.5978 38.2262C22.7902 38.2262 20.9826 38.1258 19.3467 38.0529C17.7108 37.9799 16.111 37.8795 14.6559 37.77C13.2008 37.6605 11.9445 37.5328 10.9955 37.3959C10.6972 37.3138 10.3628 37.2408 9.97418 37.1496C9.65674 37.0751 9.33282 37.0323 9.0071 37.0218C8.85614 37.0214 8.7084 37.0657 8.58231 37.1496C8.42526 37.2407 8.28219 37.3544 8.15753 37.4872C7.6803 37.862 7.18239 38.2092 6.66623 38.5273C6.14359 38.8092 5.59201 39.0324 5.02131 39.1934L4 39.5036C4 39.5036 4 39.5036 4 39.6313C4 39.7591 4.05423 39.8503 4.67786 40.6897C5.28095 41.4728 5.93943 42.2107 6.64816 42.8978C7.61751 43.8466 8.63411 44.745 9.694 45.5894C10.9309 46.5682 12.2425 47.4469 13.6165 48.2171C15.0522 49.033 16.5664 49.6994 18.1356 50.2062C19.7489 50.7255 21.4312 50.9932 23.1246 51C24.4671 50.9776 25.8047 50.8279 27.1194 50.5529C28.7281 50.2105 30.2885 49.6681 31.765 48.9379C33.4652 48.0992 35.056 47.051 36.501 45.8175C38.1489 44.3995 39.5643 42.7274 40.6946 40.8631L40.7489 40.781H40.8483L48.2505 40.6441L45.3493 50.2336C45.3007 50.336 45.2761 50.4484 45.277 50.562V50.6077H45.3221C45.4738 50.6025 45.6235 50.5716 45.765 50.5164ZM37.6307 41.1003C37.2511 41.8941 36.7902 42.7792 36.275 43.7189C35.73 44.6883 35.0649 45.5835 34.2957 46.3832C33.4824 47.2311 32.5357 47.9371 31.4939 48.4726C30.3158 49.0631 29.0127 49.3544 27.6979 49.3212C26.7552 49.2878 25.8175 49.1687 24.8961 48.9653C23.6065 48.6816 22.3473 48.2722 21.1362 47.7427C19.6201 47.0756 18.1679 46.2692 16.7979 45.3339C15.1319 44.1893 13.5846 42.8779 12.1795 41.4197L11.8631 41.1003L37.8115 40.8175L37.6307 41.1003ZM42.5746 38.2992L42.7373 38.0164C43.2072 37.2043 43.8218 36.1277 44.6172 34.7043L46.9852 30.4342L49.2989 26.2371V26.1824C50.0762 24.7772 50.6817 23.7097 51.1517 22.8977C51.3957 22.4415 51.685 21.9396 52.0555 21.4104C52.4261 20.8812 52.7243 20.3338 53.0768 19.7863C53.4293 19.2389 53.7637 18.7462 54.1433 18.217C54.5229 17.6878 54.8573 17.2589 55.1646 16.8848L55.5894 16.3648L55.499 17.0308C55.3435 18.1423 55.1048 19.2404 54.785 20.3155C54.4506 21.4469 54.1072 22.5601 53.7637 23.6367C53.6191 24.1294 53.1491 25.6623 52.399 28.071C51.6488 30.4798 50.51 33.9196 49.0549 38.1988L49.0097 38.3266H48.8741L42.5746 38.2992Z" fill="#003D59"/>
</svg>
